<svg width="27" height="27" viewBox="0 0 27 27" fill="none" xmlns="http://www.w3.org/2000/svg">
<path d="M1.875 9.875C1.875 6.10376 1.875 4.21815 3.04657 3.04657C4.21815 1.875 6.10376 1.875 9.875 1.875H17.125C20.8962 1.875 22.7819 1.875 23.9534 3.04657C25.125 4.21815 25.125 6.10376 25.125 9.875V17.125C25.125 20.8962 25.125 22.7819 23.9534 23.9534C22.7819 25.125 20.8962 25.125 17.125 25.125H9.875C6.10376 25.125 4.21815 25.125 3.04657 23.9534C1.875 22.7819 1.875 20.8962 1.875 17.125V9.875Z" stroke="#141C52" stroke-width="3"/>
<path d="M13.5 8.33334L13.5 18.6667" stroke="#141C52" stroke-width="3" stroke-linecap="square" stroke-linejoin="round"/>
<path d="M18.6666 13.5L8.33329 13.5" stroke="#141C52" stroke-width="3" stroke-linecap="square" stroke-linejoin="round"/>
</svg>
