<svg width="19" height="21" viewBox="0 0 19 21" fill="none" xmlns="http://www.w3.org/2000/svg">
<path d="M14.4616 1.83146L10.4923 4.09966C10.0078 4.3765 9.76556 4.51493 9.49999 4.51493C9.23443 4.51493 8.99219 4.3765 8.50772 4.09966L4.53836 1.83145C2.37133 0.59315 1.28781 -0.0260018 0.75049 0.456823C0.213171 0.939648 0.713369 2.08296 1.71377 4.36958L7.66768 17.9785C8.45321 19.774 8.84598 20.6718 9.49999 20.6718C10.154 20.6718 10.5468 19.774 11.3323 17.9785L17.2862 4.36958C18.2866 2.08296 18.7868 0.939648 18.2495 0.456824C17.7122 -0.0260011 16.6287 0.593152 14.4616 1.83146Z" fill="white"/>
</svg>
