<svg width="22" height="26" viewBox="0 0 22 26" fill="none" xmlns="http://www.w3.org/2000/svg">
<path d="M1 1.83334V14.6667H8.7153C9.016 14.6667 9.16636 14.6667 9.28718 14.7414C9.40801 14.816 9.47525 14.9505 9.60973 15.2195L10.7236 17.4472C10.8581 17.7162 10.9253 17.8507 11.0462 17.9253C11.167 18 11.3173 18 11.618 18H20.5C20.7357 18 20.8536 18 20.9268 17.9268C21 17.8536 21 17.7357 21 17.5V5.16668C21 4.93097 21 4.81312 20.9268 4.7399C20.8536 4.66668 20.7357 4.66668 20.5 4.66668H11.618C11.3173 4.66668 11.167 4.66668 11.0462 4.592C10.9253 4.51733 10.8581 4.38285 10.7236 4.11389L9.60973 1.88613C9.47525 1.61717 9.40801 1.48269 9.28718 1.40802C9.16636 1.33334 9.016 1.33334 8.7153 1.33334H1.5C1.2643 1.33334 1.14645 1.33334 1.07322 1.40657C1 1.47979 1 1.59764 1 1.83334Z" fill="#141C52"/>
<path d="M1 14.6667V1.83334C1 1.59764 1 1.47979 1.07322 1.40657C1.14645 1.33334 1.2643 1.33334 1.5 1.33334H8.7153C9.016 1.33334 9.16636 1.33334 9.28718 1.40802C9.40801 1.48269 9.47525 1.61717 9.60973 1.88613L10.7236 4.11389C10.8581 4.38285 10.9253 4.51733 11.0462 4.592C11.167 4.66668 11.3173 4.66668 11.618 4.66668H20.5C20.7357 4.66668 20.8536 4.66668 20.9268 4.7399C21 4.81312 21 4.93097 21 5.16668V17.5C21 17.7357 21 17.8536 20.9268 17.9268C20.8536 18 20.7357 18 20.5 18H11.618C11.3173 18 11.167 18 11.0462 17.9253C10.9253 17.8507 10.8581 17.7162 10.7236 17.4472L9.60973 15.2195C9.47525 14.9505 9.40801 14.816 9.28718 14.7414C9.16636 14.6667 9.016 14.6667 8.7153 14.6667H1ZM1 14.6667V24.6667" stroke="#141C52" stroke-width="2" stroke-linecap="round"/>
</svg>
