<svg width="35" height="31" viewBox="0 0 35 31" fill="none" xmlns="http://www.w3.org/2000/svg">
<path d="M4.19998 17.6662L16.82 29.3694C17.1426 29.6685 17.3038 29.8181 17.5 29.8181C17.6962 29.8181 17.8574 29.6685 18.18 29.3694L30.8 17.6662C30.911 17.5633 30.9665 17.5118 31.0137 17.4667C34.3307 14.2999 34.7361 9.14544 31.9549 5.49904C31.9153 5.4471 31.8686 5.3876 31.775 5.2686L31.2884 4.6494C27.787 0.194361 20.8289 0.94796 18.3625 6.04935C18.0137 6.77071 16.9863 6.77071 16.6375 6.04935C14.1711 0.94796 7.21301 0.194358 3.71162 4.6494L3.22497 5.2686L3.22494 5.26864C3.13143 5.38761 3.08468 5.44711 3.04506 5.49904C0.263891 9.14544 0.669264 14.2999 3.98626 17.4667C4.03348 17.5118 4.08892 17.5632 4.19974 17.666L4.19998 17.6662Z" fill="#F51C1C" stroke="#F51C1C" stroke-width="2"/>
</svg>
