<svg width="40" height="40" viewBox="0 0 40 40" fill="none" xmlns="http://www.w3.org/2000/svg">
<path fill-rule="evenodd" clip-rule="evenodd" d="M0 20C0 8.95431 8.95431 0 20 0C31.0457 0 40 8.95431 40 20C40 26.2196 37.161 31.7761 32.7081 35.4443C31.8361 33.0117 30.2808 30.8724 28.2183 29.2897C25.8606 27.4806 22.9718 26.5 20 26.5C17.0282 26.5 14.1394 27.4806 11.7817 29.2897C9.71919 30.8724 8.16392 33.0117 7.29189 35.4443C2.83904 31.7761 0 26.2196 0 20ZM26.392 31.6698C28.216 33.0694 29.53 35.0289 30.1327 37.2469C27.1611 38.9965 23.6978 40 20 40C16.3022 40 12.8389 38.9965 9.86735 37.2469C10.47 35.0289 11.784 33.0694 13.608 31.6698C15.4418 30.2627 17.6886 29.5 20 29.5C22.3114 29.5 24.5582 30.2627 26.392 31.6698ZM15.5 16C15.5 13.5147 17.5147 11.5 20 11.5C22.4853 11.5 24.5 13.5147 24.5 16C24.5 18.4853 22.4853 20.5 20 20.5C17.5147 20.5 15.5 18.4853 15.5 16ZM20 8.5C15.8579 8.5 12.5 11.8579 12.5 16C12.5 20.1421 15.8579 23.5 20 23.5C24.1421 23.5 27.5 20.1421 27.5 16C27.5 11.8579 24.1421 8.5 20 8.5Z" fill="#141C52"/>
<rect x="0.5" y="0.5" width="39" height="39" rx="19.5" stroke="#141C52"/>
</svg>
