<svg width="26" height="27" viewBox="0 0 26 27" fill="none" xmlns="http://www.w3.org/2000/svg">
<path fill-rule="evenodd" clip-rule="evenodd" d="M14.6453 0.641687C13.9576 0.467369 13.2387 0.375 12.5 0.375C8.05897 0.375 4.3281 3.71429 3.83767 8.12819L3.51243 11.0554C3.4502 11.6154 3.42581 11.8279 3.3891 12.032C3.27569 12.6624 3.0697 13.2727 2.77781 13.8429C2.68334 14.0275 2.57396 14.2113 2.28406 14.6945L1.40619 16.1576L1.35683 16.2398C0.99698 16.8393 0.64512 17.4254 0.436289 17.9289C0.213785 18.4654 -0.0248804 19.3236 0.465724 20.1901C0.956329 21.0566 1.81498 21.2934 2.38951 21.3787C2.92873 21.4587 3.61234 21.4585 4.31148 21.4583L4.40742 21.4583H20.5927L20.6886 21.4583C21.3877 21.4585 22.0713 21.4587 22.6106 21.3787C23.1851 21.2934 24.0437 21.0566 24.5343 20.1901C25.0249 19.3236 24.7863 18.4654 24.5638 17.9289C24.3549 17.4254 24.0031 16.8393 23.6432 16.2398L23.5939 16.1576L22.716 14.6945C22.4261 14.2113 22.3167 14.0275 22.2223 13.8429C22.1069 13.6176 22.005 13.3861 21.9169 13.1495C21.3806 13.2699 20.8227 13.3333 20.25 13.3333C19.752 13.3333 19.2652 13.2853 18.794 13.1937C18.9692 13.8916 19.2233 14.5681 19.5518 15.2099C19.6978 15.4952 19.8622 15.7691 20.1172 16.1941L20.1435 16.238L21.0214 17.7011C21.1974 17.9944 21.344 18.239 21.4674 18.4536C21.2199 18.4583 20.9347 18.4583 20.5927 18.4583H4.40742C4.0654 18.4583 3.78021 18.4583 3.5327 18.4536C3.65604 18.239 3.8027 17.9944 3.97867 17.7011L4.85654 16.238L4.8829 16.194L4.88292 16.194C5.13788 15.7691 5.30226 15.4952 5.44829 15.2099C5.8749 14.3765 6.17596 13.4846 6.34172 12.5631C6.39846 12.2476 6.43372 11.9301 6.48842 11.4376L6.48842 11.4376L6.49408 11.3867L6.81932 8.45948C7.14094 5.56488 9.58762 3.375 12.5 3.375C12.6812 3.375 12.8606 3.38348 13.0378 3.40007C13.3749 2.36497 13.9285 1.42767 14.6453 0.641687ZM19.1232 3.42474C18.261 3.84332 17.6667 4.72725 17.6667 5.75C17.6667 7.17674 18.8233 8.33333 20.25 8.33333C20.5728 8.33333 20.8817 8.27414 21.1666 8.16602L21.1624 8.12819C20.9627 6.33136 20.2261 4.71262 19.1232 3.42474Z" fill="#141C52"/>
<path d="M8.75704 20.8169C8.97781 22.0528 9.4643 23.1449 10.141 23.9239C10.8178 24.7028 11.647 25.125 12.5 25.125C13.353 25.125 14.1822 24.7028 14.8589 23.9239C15.5357 23.1449 16.0222 22.0528 16.243 20.8169" stroke="#141C52" stroke-width="3" stroke-linecap="round"/>
<circle cx="20.2617" cy="5.76165" r="4.30658" transform="rotate(1.21821 20.2617 5.76165)" fill="#FF5A5A" stroke="#FF5A5A"/>
</svg>
