<svg width="19" height="21" viewBox="0 0 19 21" fill="none" xmlns="http://www.w3.org/2000/svg">
<path d="M4.53836 19.1686L8.50772 16.9004C8.99219 16.6235 9.23443 16.4851 9.5 16.4851C9.76556 16.4851 10.0078 16.6235 10.4923 16.9004L14.4616 19.1686C16.6287 20.4069 17.7122 21.026 18.2495 20.5432C18.7868 20.0604 18.2866 18.9171 17.2862 16.6304L11.3323 3.02149C10.5468 1.22598 10.154 0.328229 9.5 0.328229C8.84598 0.328229 8.45321 1.22598 7.66768 3.02149L1.71377 16.6304C0.713371 18.9171 0.213172 20.0604 0.750492 20.5432C1.28781 21.026 2.37133 20.4069 4.53836 19.1686Z" fill="white"/>
</svg>
